<svg xmlns="http://www.w3.org/2000/svg" viewBox="0 0 354.61543 534.49124"><path fill="#D4A24C" d="m170.83997,292.06601c35.06052,22.62911,69.23355,44.68735,103.40864,66.74245,25.13344,16.22007,50.22228,32.51012,75.45719,48.57083,3.63297,2.31222,4.93116,4.78334,4.90937,9.0959-.18554,36.71331-.10615,73.42782-.10615,110.14204v7.87403c-5.03394-1.43561-9.72429-1.70266-13.16676-3.91238-76.35987-49.01485-152.58173-98.24487-228.83253-147.42994-1.98587-1.281-4.00178-2.51525-7.06535-4.43739v134.62199H.63251v-231.60552c2.11439,1.24928,3.98,2.26753,5.76147,3.41636,51.61937,33.28752,103.20826,66.62244,154.90585,99.78802,2.65696,1.70449,6.18949,2.54343,9.39137,2.79089,5.71819.44194,11.49509.12439,19.08577.12439-3.07051-2.17545-4.70102-3.42553-6.42175-4.53591-59.31839-38.2771-118.62186-76.5776-178.02659-114.72041C1.56824,266.17683-.01373,263.79485.00009,259.15081c.1851-62.05441.16222-124.10963.03524-186.16435-.00826-4.02362,1.12624-6.40323,4.59115-8.61695C36.55705,43.96947,68.35808,23.36703,100.20567,2.83729c1.30045-.83828,2.68891-1.54001,4.9729-2.83729v209.19422c83.50615-53.84719,165.84659-106.94262,249.01493-160.57196.14021,2.6951.30382,4.38155.30455,6.06806.01447,37.70942-.05541,75.41913.106,113.12785.01754,4.10346-1.31075,6.41467-4.73538,8.6147-57.54788,36.97221-115.00994,74.07809-172.48487,111.16391-1.97008,1.2712-3.87539,2.64275-6.54383,4.46922Z"/></svg>
